<?xml version="1.0" standalone="no"?><!DOCTYPE svg PUBLIC "-//W3C//DTD SVG 1.1//EN" "http://www.w3.org/Graphics/SVG/1.1/DTD/svg11.dtd"><svg t="1640505137749" class="icon" viewBox="0 0 1024 1024" version="1.1" xmlns="http://www.w3.org/2000/svg" p-id="1551" data-darkreader-inline-fill="" width="200" height="200" xmlns:xlink="http://www.w3.org/1999/xlink"><defs><style type="text/css"></style></defs><path d="M1024 512c0 282.7776-229.2224 512-512 512S0 794.7776 0 512 229.2224 0 512 0s512 229.2224 512 512z" fill="#707070" p-id="1552" data-darkreader-inline-fill="" style="--darkreader-inline-fill:#666f73;" data-spm-anchor-id="a313x.7781069.0.i6" class=""></path><path d="M486.4 537.6v166.4a38.4 38.4 0 0 1-38.4 38.4H320a38.4 38.4 0 0 1-38.4-38.4V576a38.4 38.4 0 0 1 38.4-38.4h166.4z m217.6 0a38.4 38.4 0 0 1 38.4 38.4v128a38.4 38.4 0 0 1-38.4 38.4H576a38.4 38.4 0 0 1-38.4-38.4V537.6h166.4zM448 281.6a38.4 38.4 0 0 1 38.4 38.4v166.4H320a38.4 38.4 0 0 1-38.4-38.4V320a38.4 38.4 0 0 1 38.4-38.4h128z m256 0a38.4 38.4 0 0 1 38.4 38.4v128a38.4 38.4 0 0 1-38.4 38.4H537.6V320a38.4 38.4 0 0 1 38.4-38.4h128z" fill="#e6e6e6" p-id="1553" data-darkreader-inline-fill="" style="--darkreader-inline-fill:#cecbc6;" data-spm-anchor-id="a313x.7781069.0.i5" class=""></path></svg>