<?xml version="1.0" standalone="no"?><!DOCTYPE svg PUBLIC "-//W3C//DTD SVG 1.1//EN" "http://www.w3.org/Graphics/SVG/1.1/DTD/svg11.dtd"><svg t="1642218511997" class="icon" viewBox="0 0 1024 1024" version="1.1" xmlns="http://www.w3.org/2000/svg" p-id="2293" data-darkreader-inline-fill="" xmlns:xlink="http://www.w3.org/1999/xlink" width="200" height="200"><defs><style type="text/css"></style></defs><path d="M343.62357 19.345892c53.380129-33.736946 42.347355-21.470968 16.09772 22.263742-259.974882 433.262108 152.587011 852.892903 549.095226 795.086452 82.932989-12.078796 111.340731-2.378323 16.505118 62.629161-628.967226 431.126022-1257.923441-452.574968-581.698064-879.979355z m369.829161 32.999226l36.005161 111.527914c14.600258 45.243183 10.339097 42.138151 57.883527 42.050065l117.198452-0.220215c4.855742-0.011011 6.903742 6.28714 2.972903 9.127914l-90.464344 65.458924c-43.327312 31.358624-41.499527 25.721118-24.87329 76.546753l34.716903 106.132645c1.508473 4.602495-3.853763 8.511312-7.784602 5.648516l-74.553807-54.382107c-61.175742-44.626581-52.829591-43.019011-114.027354 1.629591-24.113548 17.584172-48.216086 35.179355-72.329635 52.752516-3.919828 2.851785-9.282065-1.046022-7.773591-5.648516l26.106494-79.827957c23.882323-72.99028 32.426667-67.628043-29.718021-112.584946a466609.933763 466609.933763 0 0 1-77.009204-55.725419c-3.930839-2.840774-1.882839-9.138925 2.972903-9.127914l113.036387 0.209204c46.938839 0.088086 46.289204 6.793634 60.680258-37.821935l37.359484-115.745033c1.475441-4.624516 8.114925-4.624516 9.601376 0z" fill="#707070" p-id="2294" data-darkreader-inline-fill="" style="--darkreader-inline-fill:#666f73;"></path></svg>