<svg width="500" height="500" xmlns="http://www.w3.org/2000/svg" p-id="2130" version="1.1" class="icon" t="1642669731369">
 <g id="Layer_1">
  <title>Layer 1</title>
  <path style="--darkreader-inline-fill:#131516; --darkreader-inline-stroke:#131516;" transform="rotate(-45 140.284 149.153)" id="svg_1" d="m129.50346,96.83631c0,-4.89041 4.10959,-9 9,-9l3.56112,0c4.89041,0 9,4.10959 9,9l0,104.63271c0,4.89041 -4.10959,9 -9,9l-3.56112,0c-4.89041,0 -9,-4.10959 -9,-9l0,-104.63271z" opacity="undefined" stroke="#000000" fill="#000000"/>
  <rect style="--darkreader-inline-fill:#131516; --darkreader-inline-stroke:#131516;" transform="rotate(-45 359.283 350.486)" rx="9" stroke="#000000" id="svg_3" height="122.6327" width="21.56112" y="289.16917" x="348.50287" fill="#000000"/>
  <path transform="rotate(-1 250 398.339)" style="--darkreader-inline-fill:#131516; --darkreader-inline-stroke:#131516;" id="svg_4" d="m239.21943,346.02307c0,-4.89041 4.10959,-9 9,-9l3.56112,0c4.89041,0 9,4.10959 9,9l0,104.63271c0,4.89041 -4.10959,9 -9,9l-3.56112,0c-4.89041,0 -9,-4.10959 -9,-9l0,-104.63271z" opacity="undefined" stroke="#000000" fill="#000000"/>
  <rect transform="rotate(90 398.781 250)" style="--darkreader-inline-fill:#131516; --darkreader-inline-stroke:#131516;" rx="9" stroke="#000000" id="svg_5" height="122.6327" width="21.56112" y="188.68364" x="388" fill="#000000"/>
  <rect style="--darkreader-inline-fill:#131516; --darkreader-inline-stroke:#131516;" transform="rotate(45 358.617 148.153)" rx="9" stroke="#000000" id="svg_6" height="122.6327" width="21.56112" y="86.83641" x="347.83611" fill="#000000"/>
  <path transform="rotate(-1 250 101.339)" style="--darkreader-inline-fill:#131516; --darkreader-inline-stroke:#131516;" id="svg_7" d="m239.21945,49.02306c0,-4.89041 4.10959,-9 9,-9l3.56111,0c4.89041,0 9,4.10959 9,9l0,104.63271c0,4.89041 -4.10959,9 -9,9l-3.56111,0c-4.89041,0 -9,-4.10959 -9,-9l0,-104.63271z" opacity="undefined" stroke="#000000" fill="#000000"/>
  <path style="--darkreader-inline-fill:#131516; --darkreader-inline-stroke:#131516;" transform="rotate(45 141.951 356.819)" id="svg_8" d="m131.17024,304.50252c0,-4.89041 4.10959,-9 9,-9l3.56111,0c4.89041,0 9,4.10959 9,9l0,104.63271c0,4.89041 -4.10959,9 -9,9l-3.56111,0c-4.89041,0 -9,-4.10959 -9,-9l0,-104.63271z" opacity="undefined" stroke="#000000" fill="#000000"/>
  <path transform="rotate(-90 100.781 250)" style="--darkreader-inline-fill:#131516; --darkreader-inline-stroke:#131516;" id="svg_9" d="m90,197.68364c0,-4.89041 4.10959,-9 9,-9l3.56111,0c4.89042,0 9,4.10959 9,9l0,104.63271c0,4.89041 -4.10958,9 -9,9l-3.56111,0c-4.89041,0 -9,-4.10959 -9,-9l0,-104.63271z" opacity="undefined" stroke="#000000" fill="#000000"/>
  <path style="--darkreader-inline-fill:#131516; --darkreader-inline-stroke:#131516;" stroke="#000000" id="svg_15" d="m250.61927,191.4996c17.21669,0 31.18386,13.11087 31.18386,29.2565c0,16.14564 -13.96717,29.2439 -31.18386,29.2439c-17.2167,0 -31.18387,13.11088 -31.18387,29.25651c0,16.14564 13.96717,29.2439 31.18387,29.2439c34.43338,0 62.38116,-26.20915 62.38116,-58.50041c0,-32.29127 -27.94778,-58.5004 -62.38116,-58.5004l0,0zm0,20.11385c-5.38299,0 -9.74917,4.09454 -9.74917,9.14266c0,5.04812 4.36617,9.14266 9.74917,9.14266c5.38299,0 9.74915,-4.09454 9.74915,-9.14266c0,-5.04811 -4.36616,-9.14266 -9.74915,-9.14266zm0,58.50041c5.38021,0 9.74915,4.09714 9.74915,9.14266c0,5.0455 -4.36894,9.14266 -9.74915,9.14266c-5.38022,0 -9.74917,-4.09716 -9.74917,-9.14266c0,-5.0455 4.36895,-9.14266 9.74917,-9.14266zm60.982,-20.07658c0,32.26727 -27.89303,58.42507 -62.30085,58.42507c-34.40781,0 -62.30085,-26.1578 -62.30085,-58.42507c0,-32.26729 27.89304,-58.42509 62.30085,-58.42509c34.40782,0 62.30085,26.1578 62.30085,58.42509z" fill="#000000"/>
 </g>

</svg>