<?xml version="1.0" standalone="no"?><!DOCTYPE svg PUBLIC "-//W3C//DTD SVG 1.1//EN" "http://www.w3.org/Graphics/SVG/1.1/DTD/svg11.dtd"><svg t="1639452627938" class="icon" viewBox="0 0 1024 1024" version="1.1" xmlns="http://www.w3.org/2000/svg" p-id="8063" data-darkreader-inline-fill="" xmlns:xlink="http://www.w3.org/1999/xlink" width="200" height="200"><defs><style type="text/css"></style></defs><path d="M339.904 243.392a2.689 2.803 0 1 0 344.192 0 2.689 2.803 0 1 0-344.192 0ZM604.096 451.52 512 579.52l-92.096-128c-107.264 40.256-184.128 148.224-184.128 275.584l0 174.4 0.448 0C241.344 933.952 362.688 960 512 960s270.656-26.048 275.904-58.56l0.384 0 0-174.336C788.224 599.744 711.36 491.776 604.096 451.52zM539.456 435.84C530.688 434.944 521.792 434.496 512.832 434.496c-8.768 0-17.408 0.448-25.984 1.28 0 0-1.344 19.328 10.176 33.088 0 0 21.12 0.448 31.68-0.256C528.704 468.608 540.16 456.448 539.456 435.84zM496.704 473.92 528.32 473.92 542.528 523.968 512.512 560.32 481.344 523.968ZM207.68 571.2 230.208 543.872 219.52 506.368 195.84 506.368 184.256 543.872ZM276.352 489.536 207.296 585.6l-69.12-96.064C57.728 519.744 0 600.768 0 696.32l0 130.816 0.384 0c3.84 24.384 94.848 44.032 206.912 44.032 0.96 0 1.856-0.128 2.752-0.128l0-144c0-88.768 34.368-168.896 89.728-226.752C292.224 496.256 284.416 492.608 276.352 489.536zM219.84 502.4c0 0 8.576-9.152 8.064-24.64C221.312 477.12 214.656 476.8 207.936 476.8c-6.592 0-13.056 0.32-19.456 0.96 0 0-1.024 14.592 7.616 24.896C196.032 502.656 211.904 502.912 219.84 502.4zM78.144 333.376a2.018 2.103 0 1 0 258.304 0 2.018 2.103 0 1 0-258.304 0ZM829.248 502.4c0 0 8.64-9.152 8.064-24.64-6.592-0.64-13.184-0.96-19.968-0.96-6.656 0-13.12 0.32-19.584 0.96 0 0-1.024 14.592 7.616 24.896C805.504 502.656 821.376 502.848 829.248 502.4zM817.152 571.2 839.616 543.872 828.928 506.368 805.248 506.368 793.728 543.872ZM687.616 333.376a2.018 2.103 0 1 0 258.304 0 2.018 2.103 0 1 0-258.304 0ZM885.888 489.536l-69.12 96.064-69.12-96.064c-8 3.072-15.744 6.656-23.36 10.688 55.36 57.92 89.664 138.048 89.728 226.752l0 144c0.896 0 1.792 0 2.752 0 112 0 203.008-19.52 206.848-43.968L1024 827.008 1024 696.32C1024 600.768 966.272 519.744 885.888 489.536z" p-id="8064" fill="#707070" data-darkreader-inline-fill="" style="--darkreader-inline-fill:#666f73;"></path></svg>